<mxfile host="app.diagrams.net" modified="2023-09-20T13:16:45.068Z" agent="Mozilla/5.0 (X11; Linux x86_64; rv:109.0) Gecko/20100101 Firefox/114.0" etag="0ki1v-qBcRy_1aw1rxur" version="21.7.5" type="github">
  <diagram name="Página-1" id="mrdlyyvHVxoZzZFSD0-U">
    <mxGraphModel dx="1420" dy="774" grid="1" gridSize="10" guides="1" tooltips="1" connect="1" arrows="1" fold="1" page="1" pageScale="1" pageWidth="827" pageHeight="1169" math="0" shadow="0">
      <root>
        <mxCell id="0" />
        <mxCell id="1" parent="0" />
        <mxCell id="eSMwS-x3y-eUU53WX580-8" value="" style="endArrow=none;dashed=1;html=1;rounded=0;" parent="1" edge="1" source="wQXBnOn1zZqvv_8n-iES-4">
          <mxGeometry width="50" height="50" relative="1" as="geometry">
            <mxPoint x="980" y="600" as="sourcePoint" />
            <mxPoint x="980" y="120" as="targetPoint" />
          </mxGeometry>
        </mxCell>
        <mxCell id="OilCzZFN06r-lFkDBCc3-37" value="" style="endArrow=none;dashed=1;html=1;rounded=0;" parent="1" edge="1" source="wQXBnOn1zZqvv_8n-iES-9">
          <mxGeometry width="50" height="50" relative="1" as="geometry">
            <mxPoint x="60" y="540" as="sourcePoint" />
            <mxPoint x="60" y="140" as="targetPoint" />
          </mxGeometry>
        </mxCell>
        <mxCell id="OilCzZFN06r-lFkDBCc3-30" value="" style="endArrow=none;dashed=1;html=1;rounded=0;entryX=0.5;entryY=1;entryDx=0;entryDy=0;" parent="1" target="OilCzZFN06r-lFkDBCc3-29" edge="1">
          <mxGeometry width="50" height="50" relative="1" as="geometry">
            <mxPoint x="300" y="1030" as="sourcePoint" />
            <mxPoint x="380" y="500" as="targetPoint" />
          </mxGeometry>
        </mxCell>
        <mxCell id="OilCzZFN06r-lFkDBCc3-1" value="Cliente" style="shape=umlActor;verticalLabelPosition=bottom;verticalAlign=top;html=1;" parent="1" vertex="1">
          <mxGeometry x="40" y="40" width="40" height="80" as="geometry" />
        </mxCell>
        <mxCell id="OilCzZFN06r-lFkDBCc3-3" value="" style="endArrow=classic;html=1;rounded=0;exitX=0.03;exitY=-0.025;exitDx=0;exitDy=0;exitPerimeter=0;" parent="1" edge="1">
          <mxGeometry width="50" height="50" relative="1" as="geometry">
            <mxPoint x="81" y="161.0999999999999" as="sourcePoint" />
            <mxPoint x="280" y="160" as="targetPoint" />
          </mxGeometry>
        </mxCell>
        <mxCell id="OilCzZFN06r-lFkDBCc3-28" value="Inserir dados &lt;br&gt;(nome, email, senha)" style="edgeLabel;html=1;align=center;verticalAlign=middle;resizable=0;points=[];" parent="OilCzZFN06r-lFkDBCc3-3" vertex="1" connectable="0">
          <mxGeometry x="-0.8041" y="-1" relative="1" as="geometry">
            <mxPoint x="70" y="-2" as="offset" />
          </mxGeometry>
        </mxCell>
        <mxCell id="OilCzZFN06r-lFkDBCc3-5" value="" style="rounded=0;whiteSpace=wrap;html=1;direction=south;" parent="1" vertex="1">
          <mxGeometry x="280" y="130" width="40" height="390" as="geometry" />
        </mxCell>
        <mxCell id="OilCzZFN06r-lFkDBCc3-7" value="" style="rounded=0;whiteSpace=wrap;html=1;" parent="1" vertex="1">
          <mxGeometry x="310" y="160" width="40" height="40" as="geometry" />
        </mxCell>
        <mxCell id="OilCzZFN06r-lFkDBCc3-11" value="" style="rounded=0;whiteSpace=wrap;html=1;" parent="1" vertex="1">
          <mxGeometry x="300" y="400" width="40" height="40" as="geometry" />
        </mxCell>
        <mxCell id="OilCzZFN06r-lFkDBCc3-15" value="" style="endArrow=classic;html=1;rounded=0;entryX=1;entryY=0.5;entryDx=0;entryDy=0;exitX=0.25;exitY=0;exitDx=0;exitDy=0;" parent="1" source="OilCzZFN06r-lFkDBCc3-5" target="OilCzZFN06r-lFkDBCc3-8" edge="1">
          <mxGeometry width="50" height="50" relative="1" as="geometry">
            <mxPoint x="320" y="240" as="sourcePoint" />
            <mxPoint x="430" y="340" as="targetPoint" />
            <Array as="points">
              <mxPoint x="360" y="228" />
              <mxPoint x="360" y="260" />
            </Array>
          </mxGeometry>
        </mxCell>
        <mxCell id="OilCzZFN06r-lFkDBCc3-16" value="" style="endArrow=classic;html=1;rounded=0;exitX=0.028;exitY=-0.025;exitDx=0;exitDy=0;exitPerimeter=0;entryX=1;entryY=0.25;entryDx=0;entryDy=0;" parent="1" source="OilCzZFN06r-lFkDBCc3-5" target="OilCzZFN06r-lFkDBCc3-7" edge="1">
          <mxGeometry width="50" height="50" relative="1" as="geometry">
            <mxPoint x="380" y="390" as="sourcePoint" />
            <mxPoint x="450" y="280" as="targetPoint" />
            <Array as="points">
              <mxPoint x="360" y="141" />
              <mxPoint x="360" y="170" />
            </Array>
          </mxGeometry>
        </mxCell>
        <mxCell id="OilCzZFN06r-lFkDBCc3-20" value="" style="swimlane;startSize=0;" parent="1" vertex="1">
          <mxGeometry x="170" y="220" width="710" height="360" as="geometry" />
        </mxCell>
        <mxCell id="OilCzZFN06r-lFkDBCc3-27" value="Preenc. Incorreto dos dados" style="text;html=1;align=center;verticalAlign=middle;resizable=0;points=[];autosize=1;strokeColor=none;fillColor=none;" parent="OilCzZFN06r-lFkDBCc3-20" vertex="1">
          <mxGeometry x="200" y="15" width="170" height="30" as="geometry" />
        </mxCell>
        <mxCell id="OilCzZFN06r-lFkDBCc3-31" value="" style="swimlane;startSize=0;" parent="OilCzZFN06r-lFkDBCc3-20" vertex="1">
          <mxGeometry x="30" y="130" width="630" height="210" as="geometry" />
        </mxCell>
        <mxCell id="OilCzZFN06r-lFkDBCc3-34" value="Sequência &lt;br&gt;email" style="text;html=1;align=center;verticalAlign=middle;resizable=0;points=[];autosize=1;strokeColor=none;fillColor=none;" parent="OilCzZFN06r-lFkDBCc3-31" vertex="1">
          <mxGeometry x="5" y="3" width="80" height="40" as="geometry" />
        </mxCell>
        <mxCell id="OilCzZFN06r-lFkDBCc3-36" value="Cadastro" style="text;html=1;align=center;verticalAlign=middle;resizable=0;points=[];autosize=1;strokeColor=none;fillColor=none;" parent="OilCzZFN06r-lFkDBCc3-31" vertex="1">
          <mxGeometry x="130" y="8" width="70" height="30" as="geometry" />
        </mxCell>
        <mxCell id="OilCzZFN06r-lFkDBCc3-51" value="(Else)" style="text;html=1;align=center;verticalAlign=middle;resizable=0;points=[];autosize=1;strokeColor=none;fillColor=none;" parent="OilCzZFN06r-lFkDBCc3-31" vertex="1">
          <mxGeometry y="100" width="50" height="30" as="geometry" />
        </mxCell>
        <mxCell id="OilCzZFN06r-lFkDBCc3-55" value="Usuario cadastrado" style="text;html=1;strokeColor=none;fillColor=none;align=center;verticalAlign=middle;whiteSpace=wrap;rounded=0;" parent="OilCzZFN06r-lFkDBCc3-31" vertex="1">
          <mxGeometry x="150" y="150" width="115" height="30" as="geometry" />
        </mxCell>
        <mxCell id="eSMwS-x3y-eUU53WX580-1" value="Criar usuario (nome/email/token)" style="text;html=1;strokeColor=none;fillColor=none;align=center;verticalAlign=middle;whiteSpace=wrap;rounded=0;" parent="OilCzZFN06r-lFkDBCc3-31" vertex="1">
          <mxGeometry x="130" y="100" width="190" height="30" as="geometry" />
        </mxCell>
        <mxCell id="eSMwS-x3y-eUU53WX580-2" value="Inserir usuario no BD" style="text;html=1;align=center;verticalAlign=middle;resizable=0;points=[];autosize=1;strokeColor=none;fillColor=none;" parent="OilCzZFN06r-lFkDBCc3-31" vertex="1">
          <mxGeometry x="472" y="50" width="140" height="30" as="geometry" />
        </mxCell>
        <mxCell id="eSMwS-x3y-eUU53WX580-5" value="Usuario inserido" style="text;html=1;align=center;verticalAlign=middle;resizable=0;points=[];autosize=1;strokeColor=none;fillColor=none;" parent="OilCzZFN06r-lFkDBCc3-31" vertex="1">
          <mxGeometry x="502" y="180" width="110" height="30" as="geometry" />
        </mxCell>
        <mxCell id="eSMwS-x3y-eUU53WX580-3" value="" style="endArrow=classic;html=1;rounded=0;" parent="OilCzZFN06r-lFkDBCc3-31" target="wQXBnOn1zZqvv_8n-iES-4" edge="1">
          <mxGeometry width="50" height="50" relative="1" as="geometry">
            <mxPoint x="472" y="130" as="sourcePoint" />
            <mxPoint x="777.5" y="130" as="targetPoint" />
          </mxGeometry>
        </mxCell>
        <mxCell id="OilCzZFN06r-lFkDBCc3-8" value="" style="rounded=0;whiteSpace=wrap;html=1;" parent="OilCzZFN06r-lFkDBCc3-20" vertex="1">
          <mxGeometry x="140" y="20" width="40" height="40" as="geometry" />
        </mxCell>
        <mxCell id="OilCzZFN06r-lFkDBCc3-47" value="Email já existe = bool" style="text;html=1;align=center;verticalAlign=middle;resizable=0;points=[];autosize=1;strokeColor=none;fillColor=none;" parent="OilCzZFN06r-lFkDBCc3-20" vertex="1">
          <mxGeometry x="200" y="108" width="140" height="30" as="geometry" />
        </mxCell>
        <mxCell id="OilCzZFN06r-lFkDBCc3-50" value="" style="endArrow=none;dashed=1;html=1;rounded=0;exitX=0;exitY=0.5;exitDx=0;exitDy=0;entryX=1;entryY=0.5;entryDx=0;entryDy=0;" parent="OilCzZFN06r-lFkDBCc3-20" source="OilCzZFN06r-lFkDBCc3-31" target="OilCzZFN06r-lFkDBCc3-31" edge="1">
          <mxGeometry width="50" height="50" relative="1" as="geometry">
            <mxPoint x="280" y="170" as="sourcePoint" />
            <mxPoint x="330" y="120" as="targetPoint" />
          </mxGeometry>
        </mxCell>
        <mxCell id="OilCzZFN06r-lFkDBCc3-22" value="" style="endArrow=open;endSize=12;dashed=1;html=1;rounded=0;entryX=0.3;entryY=-0.054;entryDx=0;entryDy=0;entryPerimeter=0;exitX=0;exitY=0.5;exitDx=0;exitDy=0;" parent="1" source="OilCzZFN06r-lFkDBCc3-8" edge="1">
          <mxGeometry width="160" relative="1" as="geometry">
            <mxPoint x="300" y="300" as="sourcePoint" />
            <mxPoint x="82.16000000000008" y="261" as="targetPoint" />
          </mxGeometry>
        </mxCell>
        <mxCell id="OilCzZFN06r-lFkDBCc3-25" value="MSG ERRO" style="edgeLabel;html=1;align=center;verticalAlign=middle;resizable=0;points=[];" parent="OilCzZFN06r-lFkDBCc3-22" vertex="1" connectable="0">
          <mxGeometry x="0.6471" y="1" relative="1" as="geometry">
            <mxPoint x="9" as="offset" />
          </mxGeometry>
        </mxCell>
        <mxCell id="OilCzZFN06r-lFkDBCc3-26" value="(IF not&amp;nbsp; (V)" style="edgeLabel;html=1;align=center;verticalAlign=middle;resizable=0;points=[];" parent="OilCzZFN06r-lFkDBCc3-22" vertex="1" connectable="0">
          <mxGeometry x="-0.1713" y="2" relative="1" as="geometry">
            <mxPoint y="-1" as="offset" />
          </mxGeometry>
        </mxCell>
        <mxCell id="OilCzZFN06r-lFkDBCc3-23" value="V= Validação de informações ():bool" style="text;html=1;align=center;verticalAlign=middle;resizable=0;points=[];autosize=1;strokeColor=none;fillColor=none;" parent="1" vertex="1">
          <mxGeometry x="360" y="140" width="220" height="30" as="geometry" />
        </mxCell>
        <mxCell id="OilCzZFN06r-lFkDBCc3-29" value="WEB (APP/Aplicação)" style="rounded=0;whiteSpace=wrap;html=1;" parent="1" vertex="1">
          <mxGeometry x="240" y="80" width="120" height="40" as="geometry" />
        </mxCell>
        <mxCell id="OilCzZFN06r-lFkDBCc3-32" value="Email já existe" style="endArrow=open;endSize=12;dashed=1;html=1;rounded=0;exitX=0;exitY=0.5;exitDx=0;exitDy=0;entryX=0.73;entryY=-0.012;entryDx=0;entryDy=0;entryPerimeter=0;" parent="1" source="OilCzZFN06r-lFkDBCc3-11" edge="1">
          <mxGeometry x="0.4577" width="160" relative="1" as="geometry">
            <mxPoint x="280" y="360" as="sourcePoint" />
            <mxPoint x="80.48000000000002" y="420.0999999999999" as="targetPoint" />
            <mxPoint as="offset" />
          </mxGeometry>
        </mxCell>
        <mxCell id="OilCzZFN06r-lFkDBCc3-33" value="(IF email exist)" style="edgeLabel;html=1;align=center;verticalAlign=middle;resizable=0;points=[];" parent="OilCzZFN06r-lFkDBCc3-32" vertex="1" connectable="0">
          <mxGeometry x="-0.2301" y="2" relative="1" as="geometry">
            <mxPoint x="24" y="-2" as="offset" />
          </mxGeometry>
        </mxCell>
        <mxCell id="OilCzZFN06r-lFkDBCc3-35" value="" style="endArrow=classic;html=1;rounded=0;exitX=0.643;exitY=-0.013;exitDx=0;exitDy=0;exitPerimeter=0;entryX=1;entryY=0.5;entryDx=0;entryDy=0;" parent="1" source="OilCzZFN06r-lFkDBCc3-5" target="OilCzZFN06r-lFkDBCc3-11" edge="1">
          <mxGeometry width="50" height="50" relative="1" as="geometry">
            <mxPoint x="330" y="390" as="sourcePoint" />
            <mxPoint x="380" y="340" as="targetPoint" />
            <Array as="points">
              <mxPoint x="360" y="380" />
              <mxPoint x="360" y="420" />
            </Array>
          </mxGeometry>
        </mxCell>
        <mxCell id="OilCzZFN06r-lFkDBCc3-43" value="" style="endArrow=none;dashed=1;html=1;rounded=0;exitX=0.004;exitY=0.208;exitDx=0;exitDy=0;exitPerimeter=0;entryX=1.002;entryY=0.194;entryDx=0;entryDy=0;entryPerimeter=0;" parent="1" source="OilCzZFN06r-lFkDBCc3-20" target="OilCzZFN06r-lFkDBCc3-20" edge="1">
          <mxGeometry width="50" height="50" relative="1" as="geometry">
            <mxPoint x="370" y="390" as="sourcePoint" />
            <mxPoint x="720" y="291" as="targetPoint" />
          </mxGeometry>
        </mxCell>
        <mxCell id="OilCzZFN06r-lFkDBCc3-44" value="" style="endArrow=classic;html=1;rounded=0;" parent="1" target="wQXBnOn1zZqvv_8n-iES-3" edge="1">
          <mxGeometry width="50" height="50" relative="1" as="geometry">
            <mxPoint x="320" y="310" as="sourcePoint" />
            <mxPoint x="650" y="310" as="targetPoint" />
          </mxGeometry>
        </mxCell>
        <mxCell id="OilCzZFN06r-lFkDBCc3-46" value="" style="endArrow=open;endSize=12;dashed=1;html=1;rounded=0;entryX=0.515;entryY=0.008;entryDx=0;entryDy=0;entryPerimeter=0;" parent="1" source="wQXBnOn1zZqvv_8n-iES-1" target="OilCzZFN06r-lFkDBCc3-5" edge="1">
          <mxGeometry width="160" relative="1" as="geometry">
            <mxPoint x="650" y="330" as="sourcePoint" />
            <mxPoint x="550" y="360" as="targetPoint" />
          </mxGeometry>
        </mxCell>
        <mxCell id="OilCzZFN06r-lFkDBCc3-48" value="Verificar dados" style="text;html=1;align=center;verticalAlign=middle;resizable=0;points=[];autosize=1;strokeColor=none;fillColor=none;" parent="1" vertex="1">
          <mxGeometry x="380" y="288" width="100" height="30" as="geometry" />
        </mxCell>
        <mxCell id="OilCzZFN06r-lFkDBCc3-49" value="Usuario &lt;br&gt;cadastrado" style="endArrow=open;endSize=12;dashed=1;html=1;rounded=0;entryX=0.946;entryY=-0.012;entryDx=0;entryDy=0;entryPerimeter=0;" parent="1" edge="1">
          <mxGeometry x="0.5036" width="160" relative="1" as="geometry">
            <mxPoint x="280" y="500" as="sourcePoint" />
            <mxPoint x="80.48000000000002" y="500.02" as="targetPoint" />
            <mxPoint as="offset" />
          </mxGeometry>
        </mxCell>
        <mxCell id="OilCzZFN06r-lFkDBCc3-53" value="" style="endArrow=classic;html=1;rounded=0;exitX=0.895;exitY=-0.013;exitDx=0;exitDy=0;exitPerimeter=0;entryX=0.1;entryY=0.214;entryDx=0;entryDy=0;entryPerimeter=0;" parent="1" source="OilCzZFN06r-lFkDBCc3-5" target="wQXBnOn1zZqvv_8n-iES-2" edge="1">
          <mxGeometry width="50" height="50" relative="1" as="geometry">
            <mxPoint x="410" y="390" as="sourcePoint" />
            <mxPoint x="660" y="480" as="targetPoint" />
          </mxGeometry>
        </mxCell>
        <mxCell id="OilCzZFN06r-lFkDBCc3-54" value="" style="endArrow=classic;html=1;rounded=0;" parent="1" source="wQXBnOn1zZqvv_8n-iES-1" edge="1">
          <mxGeometry width="50" height="50" relative="1" as="geometry">
            <mxPoint x="650" y="500" as="sourcePoint" />
            <mxPoint x="320" y="500" as="targetPoint" />
          </mxGeometry>
        </mxCell>
        <mxCell id="eSMwS-x3y-eUU53WX580-4" value="" style="endArrow=open;endSize=12;dashed=1;html=1;rounded=0;" parent="1" target="wQXBnOn1zZqvv_8n-iES-2" edge="1">
          <mxGeometry width="160" relative="1" as="geometry">
            <mxPoint x="975" y="510" as="sourcePoint" />
            <mxPoint x="669.5" y="510" as="targetPoint" />
          </mxGeometry>
        </mxCell>
        <mxCell id="eSMwS-x3y-eUU53WX580-9" value="" style="ellipse;whiteSpace=wrap;html=1;aspect=fixed;" parent="1" vertex="1">
          <mxGeometry x="960" y="80" width="40" height="40" as="geometry" />
        </mxCell>
        <mxCell id="eSMwS-x3y-eUU53WX580-10" value="BD" style="text;html=1;align=center;verticalAlign=middle;resizable=0;points=[];autosize=1;strokeColor=none;fillColor=none;" parent="1" vertex="1">
          <mxGeometry x="1000" y="85" width="40" height="30" as="geometry" />
        </mxCell>
        <mxCell id="wQXBnOn1zZqvv_8n-iES-1" value="Autenticação" style="shape=umlLifeline;perimeter=lifelinePerimeter;whiteSpace=wrap;html=1;container=1;dropTarget=0;collapsible=0;recursiveResize=0;outlineConnect=0;portConstraint=eastwest;newEdgeStyle={&quot;curved&quot;:0,&quot;rounded&quot;:0};" vertex="1" parent="1">
          <mxGeometry x="620" y="80" width="100" height="950" as="geometry" />
        </mxCell>
        <mxCell id="wQXBnOn1zZqvv_8n-iES-3" value="" style="html=1;points=[[0,0,0,0,5],[0,1,0,0,-5],[1,0,0,0,5],[1,1,0,0,-5]];perimeter=orthogonalPerimeter;outlineConnect=0;targetShapes=umlLifeline;portConstraint=eastwest;newEdgeStyle={&quot;curved&quot;:0,&quot;rounded&quot;:0};" vertex="1" parent="wQXBnOn1zZqvv_8n-iES-1">
          <mxGeometry x="45" y="210" width="10" height="40" as="geometry" />
        </mxCell>
        <mxCell id="wQXBnOn1zZqvv_8n-iES-2" value="" style="html=1;points=[[0,0,0,0,5],[0,1,0,0,-5],[1,0,0,0,5],[1,1,0,0,-5]];perimeter=orthogonalPerimeter;outlineConnect=0;targetShapes=umlLifeline;portConstraint=eastwest;newEdgeStyle={&quot;curved&quot;:0,&quot;rounded&quot;:0};" vertex="1" parent="wQXBnOn1zZqvv_8n-iES-1">
          <mxGeometry x="45" y="380" width="10" height="70" as="geometry" />
        </mxCell>
        <mxCell id="wQXBnOn1zZqvv_8n-iES-5" value="" style="endArrow=none;dashed=1;html=1;rounded=0;" edge="1" parent="1" source="wQXBnOn1zZqvv_8n-iES-46" target="wQXBnOn1zZqvv_8n-iES-4">
          <mxGeometry width="50" height="50" relative="1" as="geometry">
            <mxPoint x="980" y="1020" as="sourcePoint" />
            <mxPoint x="980" y="120" as="targetPoint" />
          </mxGeometry>
        </mxCell>
        <mxCell id="wQXBnOn1zZqvv_8n-iES-4" value="" style="html=1;points=[[0,0,0,0,5],[0,1,0,0,-5],[1,0,0,0,5],[1,1,0,0,-5]];perimeter=orthogonalPerimeter;outlineConnect=0;targetShapes=umlLifeline;portConstraint=eastwest;newEdgeStyle={&quot;curved&quot;:0,&quot;rounded&quot;:0};" vertex="1" parent="1">
          <mxGeometry x="975" y="450" width="10" height="80" as="geometry" />
        </mxCell>
        <mxCell id="wQXBnOn1zZqvv_8n-iES-8" value="" style="endArrow=none;dashed=1;html=1;rounded=0;" edge="1" parent="1">
          <mxGeometry width="50" height="50" relative="1" as="geometry">
            <mxPoint x="60" y="1030" as="sourcePoint" />
            <mxPoint x="60" y="630" as="targetPoint" />
          </mxGeometry>
        </mxCell>
        <mxCell id="wQXBnOn1zZqvv_8n-iES-10" value="" style="endArrow=none;dashed=1;html=1;rounded=0;" edge="1" parent="1" target="wQXBnOn1zZqvv_8n-iES-9">
          <mxGeometry width="50" height="50" relative="1" as="geometry">
            <mxPoint x="60" y="540" as="sourcePoint" />
            <mxPoint x="60" y="140" as="targetPoint" />
          </mxGeometry>
        </mxCell>
        <mxCell id="wQXBnOn1zZqvv_8n-iES-9" value="" style="html=1;points=[[0,0,0,0,5],[0,1,0,0,-5],[1,0,0,0,5],[1,1,0,0,-5]];perimeter=orthogonalPerimeter;outlineConnect=0;targetShapes=umlLifeline;portConstraint=eastwest;newEdgeStyle={&quot;curved&quot;:0,&quot;rounded&quot;:0};" vertex="1" parent="1">
          <mxGeometry x="45" y="160" width="30" height="800" as="geometry" />
        </mxCell>
        <mxCell id="wQXBnOn1zZqvv_8n-iES-12" value="" style="swimlane;startSize=0;" vertex="1" parent="1">
          <mxGeometry x="197.84" y="730" width="630" height="220" as="geometry" />
        </mxCell>
        <mxCell id="wQXBnOn1zZqvv_8n-iES-40" value="" style="html=1;points=[[0,0,0,0,5],[0,1,0,0,-5],[1,0,0,0,5],[1,1,0,0,-5]];perimeter=orthogonalPerimeter;outlineConnect=0;targetShapes=umlLifeline;portConstraint=eastwest;newEdgeStyle={&quot;curved&quot;:0,&quot;rounded&quot;:0};" vertex="1" parent="wQXBnOn1zZqvv_8n-iES-12">
          <mxGeometry x="90" y="-130" width="30" height="320" as="geometry" />
        </mxCell>
        <mxCell id="wQXBnOn1zZqvv_8n-iES-13" value="&lt;div&gt;Sequência&lt;/div&gt;&lt;div&gt;cadastro&lt;/div&gt;" style="text;html=1;align=center;verticalAlign=middle;resizable=0;points=[];autosize=1;strokeColor=none;fillColor=none;" vertex="1" parent="wQXBnOn1zZqvv_8n-iES-12">
          <mxGeometry x="5" y="3" width="80" height="40" as="geometry" />
        </mxCell>
        <mxCell id="wQXBnOn1zZqvv_8n-iES-14" value="Cadastro" style="text;html=1;align=center;verticalAlign=middle;resizable=0;points=[];autosize=1;strokeColor=none;fillColor=none;" vertex="1" parent="wQXBnOn1zZqvv_8n-iES-12">
          <mxGeometry x="130" y="8" width="70" height="30" as="geometry" />
        </mxCell>
        <mxCell id="wQXBnOn1zZqvv_8n-iES-15" value="(Else)" style="text;html=1;align=center;verticalAlign=middle;resizable=0;points=[];autosize=1;strokeColor=none;fillColor=none;" vertex="1" parent="wQXBnOn1zZqvv_8n-iES-12">
          <mxGeometry x="12.16" y="80" width="50" height="30" as="geometry" />
        </mxCell>
        <mxCell id="wQXBnOn1zZqvv_8n-iES-16" value="Produto cadastrado" style="text;html=1;strokeColor=none;fillColor=none;align=center;verticalAlign=middle;whiteSpace=wrap;rounded=0;" vertex="1" parent="wQXBnOn1zZqvv_8n-iES-12">
          <mxGeometry x="150" y="150" width="115" height="30" as="geometry" />
        </mxCell>
        <mxCell id="wQXBnOn1zZqvv_8n-iES-17" value="Criar produto (dados)" style="text;html=1;strokeColor=none;fillColor=none;align=center;verticalAlign=middle;whiteSpace=wrap;rounded=0;" vertex="1" parent="wQXBnOn1zZqvv_8n-iES-12">
          <mxGeometry x="130" y="100" width="190" height="30" as="geometry" />
        </mxCell>
        <mxCell id="wQXBnOn1zZqvv_8n-iES-18" value="Inserir produto no BD" style="text;html=1;align=center;verticalAlign=middle;resizable=0;points=[];autosize=1;strokeColor=none;fillColor=none;" vertex="1" parent="wQXBnOn1zZqvv_8n-iES-12">
          <mxGeometry x="472" y="50" width="140" height="30" as="geometry" />
        </mxCell>
        <mxCell id="wQXBnOn1zZqvv_8n-iES-19" value="Produto inserido" style="text;html=1;align=center;verticalAlign=middle;resizable=0;points=[];autosize=1;strokeColor=none;fillColor=none;" vertex="1" parent="wQXBnOn1zZqvv_8n-iES-12">
          <mxGeometry x="502" y="180" width="110" height="30" as="geometry" />
        </mxCell>
        <mxCell id="wQXBnOn1zZqvv_8n-iES-20" value="" style="endArrow=classic;html=1;rounded=0;" edge="1" parent="wQXBnOn1zZqvv_8n-iES-12">
          <mxGeometry width="50" height="50" relative="1" as="geometry">
            <mxPoint x="472" y="130" as="sourcePoint" />
            <mxPoint x="775.1600000000001" y="130" as="targetPoint" />
          </mxGeometry>
        </mxCell>
        <mxCell id="wQXBnOn1zZqvv_8n-iES-27" value="(IF dados exist)" style="edgeLabel;html=1;align=center;verticalAlign=middle;resizable=0;points=[];" vertex="1" connectable="0" parent="wQXBnOn1zZqvv_8n-iES-12">
          <mxGeometry x="45.00091989805583" y="59.998720633947414" as="geometry" />
        </mxCell>
        <mxCell id="wQXBnOn1zZqvv_8n-iES-23" value="" style="endArrow=none;dashed=1;html=1;rounded=0;exitX=0;exitY=0.5;exitDx=0;exitDy=0;entryX=1;entryY=0.5;entryDx=0;entryDy=0;" edge="1" parent="wQXBnOn1zZqvv_8n-iES-12">
          <mxGeometry width="50" height="50" relative="1" as="geometry">
            <mxPoint x="-5.684341886080802e-14" y="100" as="sourcePoint" />
            <mxPoint x="630.0000000000002" y="100" as="targetPoint" />
          </mxGeometry>
        </mxCell>
        <mxCell id="wQXBnOn1zZqvv_8n-iES-21" value="" style="rounded=0;whiteSpace=wrap;html=1;" vertex="1" parent="1">
          <mxGeometry x="303.92" y="620" width="26.08" height="40" as="geometry" />
        </mxCell>
        <mxCell id="wQXBnOn1zZqvv_8n-iES-22" value="&lt;div&gt;Dados já existe = bool&lt;/div&gt;" style="text;html=1;align=center;verticalAlign=middle;resizable=0;points=[];autosize=1;strokeColor=none;fillColor=none;" vertex="1" parent="1">
          <mxGeometry x="367.84" y="708" width="140" height="30" as="geometry" />
        </mxCell>
        <mxCell id="wQXBnOn1zZqvv_8n-iES-28" value="" style="endArrow=classic;html=1;rounded=0;exitX=0.643;exitY=-0.013;exitDx=0;exitDy=0;exitPerimeter=0;entryX=1;entryY=0.5;entryDx=0;entryDy=0;" edge="1" parent="1" target="wQXBnOn1zZqvv_8n-iES-11">
          <mxGeometry width="50" height="50" relative="1" as="geometry">
            <mxPoint x="318.84" y="761" as="sourcePoint" />
            <mxPoint x="377.84" y="720" as="targetPoint" />
            <Array as="points">
              <mxPoint x="357.84" y="760" />
              <mxPoint x="357.84" y="800" />
            </Array>
          </mxGeometry>
        </mxCell>
        <mxCell id="wQXBnOn1zZqvv_8n-iES-30" value="" style="endArrow=classic;html=1;rounded=0;" edge="1" parent="1">
          <mxGeometry width="50" height="50" relative="1" as="geometry">
            <mxPoint x="330" y="650" as="sourcePoint" />
            <mxPoint x="973" y="650" as="targetPoint" />
          </mxGeometry>
        </mxCell>
        <mxCell id="wQXBnOn1zZqvv_8n-iES-44" value="Enviar dados para o banco" style="edgeLabel;html=1;align=center;verticalAlign=middle;resizable=0;points=[];" vertex="1" connectable="0" parent="wQXBnOn1zZqvv_8n-iES-30">
          <mxGeometry x="-0.3186" y="-2" relative="1" as="geometry">
            <mxPoint as="offset" />
          </mxGeometry>
        </mxCell>
        <mxCell id="wQXBnOn1zZqvv_8n-iES-31" value="" style="endArrow=open;endSize=12;dashed=1;html=1;rounded=0;exitX=-0.4;exitY=0.75;exitDx=0;exitDy=0;exitPerimeter=0;" edge="1" parent="1" source="wQXBnOn1zZqvv_8n-iES-46" target="wQXBnOn1zZqvv_8n-iES-40">
          <mxGeometry width="160" relative="1" as="geometry">
            <mxPoint x="970" y="689.9200000000001" as="sourcePoint" />
            <mxPoint x="317.84" y="711" as="targetPoint" />
          </mxGeometry>
        </mxCell>
        <mxCell id="wQXBnOn1zZqvv_8n-iES-32" value="Verificar dados" style="text;html=1;align=center;verticalAlign=middle;resizable=0;points=[];autosize=1;strokeColor=none;fillColor=none;" vertex="1" parent="1">
          <mxGeometry x="377.84" y="668" width="100" height="30" as="geometry" />
        </mxCell>
        <mxCell id="wQXBnOn1zZqvv_8n-iES-33" value="" style="endArrow=classic;html=1;rounded=0;entryX=0.1;entryY=0.214;entryDx=0;entryDy=0;entryPerimeter=0;" edge="1" parent="1" target="wQXBnOn1zZqvv_8n-iES-37" source="wQXBnOn1zZqvv_8n-iES-40">
          <mxGeometry width="50" height="50" relative="1" as="geometry">
            <mxPoint x="318.84" y="859" as="sourcePoint" />
            <mxPoint x="657.84" y="860" as="targetPoint" />
          </mxGeometry>
        </mxCell>
        <mxCell id="wQXBnOn1zZqvv_8n-iES-34" value="" style="endArrow=classic;html=1;rounded=0;" edge="1" parent="1" source="wQXBnOn1zZqvv_8n-iES-37">
          <mxGeometry width="50" height="50" relative="1" as="geometry">
            <mxPoint x="667.84" y="880" as="sourcePoint" />
            <mxPoint x="317.84" y="880" as="targetPoint" />
          </mxGeometry>
        </mxCell>
        <mxCell id="wQXBnOn1zZqvv_8n-iES-35" value="" style="endArrow=open;endSize=12;dashed=1;html=1;rounded=0;" edge="1" parent="1" target="wQXBnOn1zZqvv_8n-iES-37">
          <mxGeometry width="160" relative="1" as="geometry">
            <mxPoint x="972.8399999999999" y="890" as="sourcePoint" />
            <mxPoint x="667.34" y="890" as="targetPoint" />
          </mxGeometry>
        </mxCell>
        <mxCell id="wQXBnOn1zZqvv_8n-iES-11" value="" style="rounded=0;whiteSpace=wrap;html=1;" vertex="1" parent="1">
          <mxGeometry x="310" y="780" width="27.84" height="40" as="geometry" />
        </mxCell>
        <mxCell id="wQXBnOn1zZqvv_8n-iES-41" value="" style="endArrow=classic;html=1;rounded=0;entryX=-0.028;entryY=0.098;entryDx=0;entryDy=0;entryPerimeter=0;" edge="1" parent="1" source="wQXBnOn1zZqvv_8n-iES-9" target="wQXBnOn1zZqvv_8n-iES-40">
          <mxGeometry width="50" height="50" relative="1" as="geometry">
            <mxPoint x="80" y="650" as="sourcePoint" />
            <mxPoint x="280" y="640" as="targetPoint" />
          </mxGeometry>
        </mxCell>
        <mxCell id="wQXBnOn1zZqvv_8n-iES-42" value="Inserir dados do produto" style="edgeLabel;html=1;align=center;verticalAlign=middle;resizable=0;points=[];" vertex="1" connectable="0" parent="wQXBnOn1zZqvv_8n-iES-41">
          <mxGeometry x="0.0755" y="3" relative="1" as="geometry">
            <mxPoint x="-9" y="3" as="offset" />
          </mxGeometry>
        </mxCell>
        <mxCell id="wQXBnOn1zZqvv_8n-iES-43" value="" style="endArrow=classic;html=1;rounded=0;entryX=1;entryY=0.5;entryDx=0;entryDy=0;" edge="1" parent="1" target="wQXBnOn1zZqvv_8n-iES-21">
          <mxGeometry width="50" height="50" relative="1" as="geometry">
            <mxPoint x="320" y="610" as="sourcePoint" />
            <mxPoint x="760" y="490" as="targetPoint" />
            <Array as="points">
              <mxPoint x="350" y="610" />
              <mxPoint x="350" y="640" />
            </Array>
          </mxGeometry>
        </mxCell>
        <mxCell id="wQXBnOn1zZqvv_8n-iES-45" value="" style="endArrow=open;endSize=12;dashed=1;html=1;rounded=0;" edge="1" parent="1" target="wQXBnOn1zZqvv_8n-iES-9">
          <mxGeometry width="160" relative="1" as="geometry">
            <mxPoint x="309.9999999999999" y="799.5" as="sourcePoint" />
            <mxPoint x="10.159999999999968" y="799.5" as="targetPoint" />
          </mxGeometry>
        </mxCell>
        <mxCell id="wQXBnOn1zZqvv_8n-iES-47" value="" style="endArrow=none;dashed=1;html=1;rounded=0;" edge="1" parent="1" source="wQXBnOn1zZqvv_8n-iES-48" target="wQXBnOn1zZqvv_8n-iES-46">
          <mxGeometry width="50" height="50" relative="1" as="geometry">
            <mxPoint x="980" y="1020" as="sourcePoint" />
            <mxPoint x="980" y="530" as="targetPoint" />
          </mxGeometry>
        </mxCell>
        <mxCell id="wQXBnOn1zZqvv_8n-iES-46" value="" style="html=1;points=[[0,0,0,0,5],[0,1,0,0,-5],[1,0,0,0,5],[1,1,0,0,-5]];perimeter=orthogonalPerimeter;outlineConnect=0;targetShapes=umlLifeline;portConstraint=eastwest;newEdgeStyle={&quot;curved&quot;:0,&quot;rounded&quot;:0};" vertex="1" parent="1">
          <mxGeometry x="975" y="630" width="10" height="80" as="geometry" />
        </mxCell>
        <mxCell id="wQXBnOn1zZqvv_8n-iES-50" value="" style="endArrow=none;dashed=1;html=1;rounded=0;" edge="1" parent="1" target="wQXBnOn1zZqvv_8n-iES-48">
          <mxGeometry width="50" height="50" relative="1" as="geometry">
            <mxPoint x="980" y="1030" as="sourcePoint" />
            <mxPoint x="980" y="710" as="targetPoint" />
          </mxGeometry>
        </mxCell>
        <mxCell id="wQXBnOn1zZqvv_8n-iES-48" value="" style="html=1;points=[[0,0,0,0,5],[0,1,0,0,-5],[1,0,0,0,5],[1,1,0,0,-5]];perimeter=orthogonalPerimeter;outlineConnect=0;targetShapes=umlLifeline;portConstraint=eastwest;newEdgeStyle={&quot;curved&quot;:0,&quot;rounded&quot;:0};" vertex="1" parent="1">
          <mxGeometry x="975" y="830" width="10" height="80" as="geometry" />
        </mxCell>
        <mxCell id="wQXBnOn1zZqvv_8n-iES-51" value="" style="endArrow=classic;html=1;rounded=0;" edge="1" parent="1" target="wQXBnOn1zZqvv_8n-iES-37">
          <mxGeometry width="50" height="50" relative="1" as="geometry">
            <mxPoint x="667.84" y="880" as="sourcePoint" />
            <mxPoint x="317.84" y="880" as="targetPoint" />
          </mxGeometry>
        </mxCell>
        <mxCell id="wQXBnOn1zZqvv_8n-iES-37" value="" style="html=1;points=[[0,0,0,0,5],[0,1,0,0,-5],[1,0,0,0,5],[1,1,0,0,-5]];perimeter=orthogonalPerimeter;outlineConnect=0;targetShapes=umlLifeline;portConstraint=eastwest;newEdgeStyle={&quot;curved&quot;:0,&quot;rounded&quot;:0};" vertex="1" parent="1">
          <mxGeometry x="665" y="850" width="10" height="70" as="geometry" />
        </mxCell>
      </root>
    </mxGraphModel>
  </diagram>
</mxfile>
